<?xml version="1.0" encoding="utf-8"?><!-- Uploaded to: SVG Repo, www.svgrepo.com, Generator: SVG Repo Mixer Tools -->
<svg fill="#000000" width="800px" height="800px" viewBox="0 0 24 24" id="file-folder-3" data-name="Flat Color" xmlns="http://www.w3.org/2000/svg" class="icon flat-color"><path id="secondary" d="M18,2H6A2,2,0,0,0,4,4v7a1,1,0,0,0,1,1H19a1,1,0,0,0,1-1V4A2,2,0,0,0,18,2Z" style="fill: rgb(44, 169, 188);"></path><path id="primary" d="M20,8H15a1.05,1.05,0,0,0-.71.29L12.6,10H4a2,2,0,0,0-2,2v8a2,2,0,0,0,2,2H20a2,2,0,0,0,2-2V10A2,2,0,0,0,20,8Z" style="fill: rgb(0, 0, 0);"></path></svg>